<svg xmlns="http://www.w3.org/2000/svg" xmlns:xlink="http://www.w3.org/1999/xlink" width="148" zoomAndPan="magnify" viewBox="0 0 110.88 110.999996" height="148" preserveAspectRatio="xMidYMid meet" version="1.0"><path fill="#eacf32" d="M 96.777344 68.460938 L 96.777344 42.542969 C 47.503906 33.613281 12.886719 42.542969 12.886719 42.542969 L 12.886719 68.574219 L 13.367188 68.574219 C 17.648438 69.585938 50.535156 76.710938 96.113281 68.574219 L 96.777344 68.574219 Z M 96.777344 68.460938 " fill-opacity="1" fill-rule="nonzero"/><path fill="#fcf9de" d="M 24.46875 56.503906 C 24.46875 56.886719 24.515625 57.269531 24.617188 57.652344 C 24.714844 58.035156 24.863281 58.417969 25.0625 58.792969 C 25.257812 59.171875 25.503906 59.542969 25.796875 59.910156 C 26.09375 60.28125 26.433594 60.640625 26.820312 60.996094 C 27.210938 61.351562 27.644531 61.699219 28.121094 62.039062 C 28.597656 62.378906 29.121094 62.707031 29.683594 63.027344 C 30.246094 63.347656 30.851562 63.65625 31.492188 63.953125 C 32.136719 64.25 32.816406 64.535156 33.535156 64.808594 C 34.253906 65.078125 35.003906 65.335938 35.789062 65.582031 C 36.570312 65.824219 37.386719 66.054688 38.230469 66.269531 C 39.074219 66.480469 39.941406 66.679688 40.835938 66.859375 C 41.730469 67.042969 42.648438 67.207031 43.585938 67.355469 C 44.523438 67.5 45.476562 67.628906 46.445312 67.742188 C 47.417969 67.855469 48.402344 67.945312 49.394531 68.023438 C 50.390625 68.097656 51.394531 68.152344 52.402344 68.191406 C 53.414062 68.230469 54.425781 68.246094 55.441406 68.246094 C 56.453125 68.246094 57.464844 68.230469 58.476562 68.191406 C 59.484375 68.152344 60.488281 68.097656 61.484375 68.023438 C 62.480469 67.945312 63.460938 67.855469 64.433594 67.742188 C 65.402344 67.628906 66.359375 67.5 67.296875 67.355469 C 68.234375 67.207031 69.148438 67.042969 70.042969 66.859375 C 70.9375 66.679688 71.808594 66.480469 72.652344 66.269531 C 73.496094 66.054688 74.308594 65.824219 75.09375 65.582031 C 75.875 65.335938 76.628906 65.078125 77.34375 64.808594 C 78.0625 64.535156 78.742188 64.25 79.386719 63.953125 C 80.03125 63.65625 80.632812 63.347656 81.195312 63.027344 C 81.761719 62.707031 82.28125 62.378906 82.757812 62.039062 C 83.238281 61.699219 83.671875 61.351562 84.058594 60.996094 C 84.445312 60.640625 84.789062 60.28125 85.082031 59.910156 C 85.375 59.542969 85.621094 59.171875 85.820312 58.792969 C 86.015625 58.417969 86.164062 58.035156 86.265625 57.652344 C 86.363281 57.269531 86.414062 56.886719 86.414062 56.503906 C 86.414062 56.117188 86.363281 55.734375 86.261719 55.351562 C 86.164062 54.96875 86.015625 54.589844 85.816406 54.210938 C 85.621094 53.835938 85.375 53.460938 85.078125 53.09375 C 84.785156 52.726562 84.441406 52.363281 84.054688 52.011719 C 83.667969 51.65625 83.234375 51.308594 82.753906 50.96875 C 82.277344 50.628906 81.757812 50.300781 81.191406 49.980469 C 80.628906 49.660156 80.027344 49.351562 79.382812 49.054688 C 78.738281 48.757812 78.058594 48.472656 77.339844 48.199219 C 76.625 47.929688 75.871094 47.671875 75.089844 47.425781 C 74.304688 47.183594 73.492188 46.953125 72.648438 46.742188 C 71.804688 46.527344 70.933594 46.328125 70.039062 46.148438 C 69.144531 45.96875 68.230469 45.804688 67.292969 45.65625 C 66.355469 45.507812 65.402344 45.378906 64.429688 45.265625 C 63.460938 45.15625 62.476562 45.0625 61.484375 44.988281 C 60.488281 44.914062 59.484375 44.855469 58.476562 44.820312 C 57.464844 44.78125 56.453125 44.761719 55.441406 44.761719 C 54.425781 44.761719 53.414062 44.78125 52.402344 44.820312 C 51.394531 44.855469 50.390625 44.914062 49.398438 44.988281 C 48.402344 45.0625 47.417969 45.15625 46.449219 45.265625 C 45.476562 45.378906 44.523438 45.507812 43.585938 45.65625 C 42.648438 45.804688 41.734375 45.96875 40.839844 46.148438 C 39.945312 46.328125 39.074219 46.527344 38.234375 46.742188 C 37.390625 46.953125 36.574219 47.183594 35.792969 47.425781 C 35.007812 47.671875 34.257812 47.929688 33.539062 48.199219 C 32.820312 48.472656 32.140625 48.757812 31.496094 49.054688 C 30.855469 49.351562 30.25 49.660156 29.6875 49.980469 C 29.125 50.300781 28.601562 50.628906 28.125 50.96875 C 27.644531 51.308594 27.214844 51.65625 26.824219 52.011719 C 26.4375 52.363281 26.09375 52.726562 25.800781 53.09375 C 25.507812 53.460938 25.261719 53.835938 25.0625 54.210938 C 24.863281 54.589844 24.714844 54.96875 24.617188 55.351562 C 24.515625 55.734375 24.46875 56.117188 24.46875 56.503906 Z M 24.46875 56.503906 " fill-opacity="1" fill-rule="nonzero"/><path fill="#f9bb32" d="M 105.464844 70.222656 L 105.464844 40.894531 C 105.464844 40.230469 104.683594 39.78125 103.96875 40.03125 L 96.777344 42.542969 L 96.777344 68.574219 L 103.96875 71.089844 C 104.683594 71.339844 105.464844 70.886719 105.464844 70.222656 Z M 5.417969 70.222656 L 5.417969 40.894531 C 5.417969 40.230469 6.089844 39.78125 6.703125 40.03125 L 12.886719 42.542969 L 12.886719 68.574219 L 6.703125 71.089844 C 6.085938 71.339844 5.417969 70.886719 5.417969 70.222656 Z M 5.417969 70.222656 " fill-opacity="1" fill-rule="nonzero"/><path fill="#fcda4f" d="M 34.949219 62.292969 C 33.789062 62.292969 32.878906 62.035156 32.210938 61.519531 C 31.652344 61.089844 31.371094 60.59375 31.371094 60.03125 C 31.371094 59.746094 31.457031 59.507812 31.628906 59.316406 C 31.804688 59.128906 32.042969 59.035156 32.347656 59.035156 C 32.757812 59.035156 33.058594 59.242188 33.25 59.664062 C 33.511719 60.222656 34.101562 60.503906 35.015625 60.503906 C 35.800781 60.503906 36.5625 60.332031 37.296875 59.992188 C 38.058594 59.640625 38.4375 59.253906 38.4375 58.835938 C 38.4375 58.261719 38.203125 57.882812 37.726562 57.699219 C 37.390625 57.566406 36.710938 57.488281 35.695312 57.464844 C 34.90625 57.449219 34.199219 57.300781 33.574219 57.019531 C 32.730469 56.644531 32.3125 56.101562 32.328125 55.390625 C 32.339844 54.503906 32.816406 53.6875 33.75 52.945312 C 34.6875 52.203125 35.71875 51.832031 36.84375 51.832031 C 37.292969 51.832031 37.84375 51.9375 38.5 52.140625 C 39.316406 52.398438 39.726562 52.691406 39.726562 53.023438 C 39.726562 53.261719 39.644531 53.472656 39.480469 53.652344 C 39.296875 53.859375 39.0625 53.960938 38.773438 53.960938 C 38.558594 53.960938 38.238281 53.917969 37.8125 53.824219 C 37.386719 53.734375 37.0625 53.6875 36.84375 53.6875 C 36.253906 53.691406 35.695312 53.835938 35.167969 54.113281 C 34.621094 54.394531 34.347656 54.703125 34.347656 55.035156 C 34.347656 55.210938 34.429688 55.351562 34.597656 55.464844 C 34.761719 55.578125 35.011719 55.65625 35.34375 55.699219 L 37.089844 55.796875 C 38.105469 55.875 38.90625 56.160156 39.492188 56.652344 C 40.140625 57.199219 40.464844 57.957031 40.464844 58.925781 C 40.464844 60.101562 39.792969 60.992188 38.453125 61.601562 C 37.429688 62.0625 36.261719 62.292969 34.949219 62.292969 Z M 48.65625 60.691406 C 48.328125 61.140625 47.925781 61.515625 47.453125 61.820312 C 46.878906 62.183594 46.289062 62.367188 45.679688 62.367188 C 44.515625 62.367188 43.652344 62.148438 43.085938 61.707031 C 41.890625 60.78125 41.292969 59.167969 41.292969 56.875 C 41.292969 56.652344 41.304688 56.328125 41.328125 55.890625 C 41.351562 55.457031 41.363281 55.128906 41.363281 54.910156 C 41.363281 54.734375 41.367188 54.476562 41.375 54.128906 C 41.382812 53.78125 41.390625 53.519531 41.390625 53.34375 C 41.390625 52.984375 41.457031 52.648438 41.585938 52.328125 C 41.765625 51.90625 42.015625 51.695312 42.332031 51.695312 C 42.585938 51.695312 42.804688 51.773438 42.996094 51.9375 C 43.207031 52.109375 43.3125 52.328125 43.3125 52.59375 C 43.3125 52.847656 43.308594 53.234375 43.300781 53.75 C 43.296875 54.265625 43.292969 54.652344 43.292969 54.910156 C 43.292969 55.125 43.28125 55.449219 43.257812 55.882812 C 43.234375 56.316406 43.222656 56.640625 43.222656 56.855469 C 43.222656 57.546875 43.304688 58.191406 43.46875 58.785156 C 43.660156 59.492188 43.941406 59.988281 44.3125 60.269531 C 44.503906 60.417969 44.960938 60.496094 45.679688 60.503906 C 46.886719 60.523438 47.695312 59.496094 48.117188 57.425781 C 48.335938 56.351562 48.445312 54.847656 48.445312 52.90625 C 48.445312 52.652344 48.519531 52.40625 48.671875 52.167969 C 48.875 51.855469 49.167969 51.695312 49.546875 51.695312 C 49.859375 51.695312 50.089844 51.808594 50.246094 52.039062 C 50.363281 52.207031 50.421875 52.394531 50.421875 52.601562 C 50.421875 54.402344 50.339844 55.808594 50.171875 56.816406 C 49.914062 58.371094 49.410156 59.664062 48.65625 60.691406 Z M 60.222656 57.851562 C 59.914062 59.210938 59.289062 60.296875 58.347656 61.113281 C 57.394531 61.9375 56.277344 62.347656 54.996094 62.347656 C 53.78125 62.347656 52.871094 62.027344 52.265625 61.382812 C 51.65625 60.742188 51.355469 59.78125 51.355469 58.5 C 51.355469 57.332031 51.640625 56.132812 52.21875 54.90625 C 52.792969 53.679688 53.53125 52.683594 54.433594 51.921875 C 55.070312 51.390625 55.75 51.121094 56.472656 51.121094 C 56.917969 51.121094 57.519531 51.28125 58.28125 51.601562 C 59.183594 51.980469 59.636719 52.382812 59.636719 52.8125 C 59.636719 53.058594 59.542969 53.277344 59.355469 53.472656 C 59.167969 53.667969 58.9375 53.765625 58.664062 53.765625 C 58.527344 53.765625 58.226562 53.636719 57.757812 53.378906 C 57.289062 53.121094 56.863281 52.992188 56.472656 52.992188 C 56.0625 52.992188 55.507812 53.433594 54.8125 54.320312 C 53.792969 55.605469 53.285156 57 53.285156 58.5 C 53.285156 59.261719 53.394531 59.78125 53.621094 60.054688 C 53.855469 60.339844 54.316406 60.484375 54.996094 60.484375 C 55.695312 60.484375 56.308594 60.285156 56.835938 59.890625 C 57.398438 59.46875 57.8125 58.859375 58.082031 58.054688 C 57.023438 58.136719 56.101562 58.355469 55.316406 58.707031 C 55.183594 58.769531 55.042969 58.800781 54.894531 58.800781 C 54.609375 58.800781 54.375 58.695312 54.1875 58.488281 C 54.019531 58.300781 53.933594 58.085938 53.933594 57.851562 C 53.933594 57.152344 54.761719 56.664062 56.410156 56.386719 C 57.34375 56.230469 58.429688 56.152344 59.667969 56.152344 C 59.945312 56.152344 60.171875 56.242188 60.359375 56.417969 C 60.542969 56.597656 60.632812 56.816406 60.632812 57.078125 C 60.632812 57.410156 60.496094 57.667969 60.222656 57.851562 Z M 69.167969 62.078125 C 68.808594 62.066406 68.445312 61.640625 68.082031 60.804688 C 67.839844 60.269531 67.632812 59.648438 67.457031 58.945312 C 67.121094 58.996094 66.570312 59.042969 65.800781 59.09375 C 65.082031 59.144531 64.527344 59.203125 64.144531 59.273438 C 63.9375 59.773438 63.570312 60.53125 63.050781 61.539062 C 62.851562 61.867188 62.570312 62.03125 62.214844 62.03125 C 61.964844 62.03125 61.738281 61.945312 61.539062 61.773438 C 61.335938 61.601562 61.238281 61.386719 61.238281 61.121094 C 61.238281 60.886719 61.570312 60.097656 62.238281 58.753906 C 62.171875 58.609375 62.144531 58.480469 62.152344 58.355469 C 62.171875 58.136719 62.394531 57.964844 62.816406 57.84375 C 63.464844 56.71875 64.1875 55.554688 64.980469 54.351562 C 66.121094 52.621094 66.824219 51.757812 67.089844 51.757812 C 67.589844 51.757812 67.925781 52.0625 68.09375 52.667969 C 68.234375 53.402344 68.378906 54.132812 68.527344 54.863281 C 68.804688 56.179688 69.144531 57.683594 69.546875 59.375 C 69.578125 59.503906 69.695312 59.804688 69.894531 60.277344 C 70.058594 60.671875 70.140625 60.964844 70.140625 61.160156 C 70.140625 61.425781 70.042969 61.648438 69.84375 61.824219 C 69.644531 62.003906 69.421875 62.089844 69.167969 62.078125 Z M 66.617188 55.058594 C 66.128906 55.890625 65.636719 56.722656 65.144531 57.554688 C 65.351562 57.507812 65.667969 57.472656 66.101562 57.445312 C 66.613281 57.414062 66.9375 57.386719 67.066406 57.371094 C 66.921875 56.597656 66.773438 55.828125 66.617188 55.058594 Z M 78.574219 61.957031 C 78.328125 61.957031 78.101562 61.859375 77.894531 61.667969 C 76.511719 60.375 74.992188 59.472656 73.335938 58.972656 C 73.386719 60.300781 73.414062 61.035156 73.414062 61.183594 C 73.414062 61.441406 73.320312 61.664062 73.136719 61.84375 C 72.957031 62.023438 72.726562 62.113281 72.453125 62.113281 C 72.179688 62.113281 71.953125 62.023438 71.769531 61.84375 C 71.585938 61.664062 71.496094 61.441406 71.496094 61.183594 C 71.496094 60.839844 71.5 60.328125 71.507812 59.644531 C 71.519531 58.964844 71.523438 58.453125 71.523438 58.109375 L 71.535156 52.585938 C 71.535156 52.289062 71.625 52.019531 71.804688 51.777344 C 72.035156 51.46875 72.359375 51.328125 72.769531 51.363281 C 73.878906 51.445312 74.445312 51.488281 74.472656 51.492188 C 75.113281 51.570312 75.65625 51.722656 76.101562 51.949219 C 78.050781 52.929688 79.023438 54.148438 79.023438 55.597656 C 79.023438 56.195312 78.820312 56.722656 78.410156 57.183594 C 78.003906 57.640625 77.390625 58.027344 76.574219 58.34375 C 77.78125 59.019531 78.691406 59.707031 79.304688 60.410156 C 79.464844 60.59375 79.542969 60.792969 79.542969 61.019531 C 79.542969 61.273438 79.449219 61.492188 79.257812 61.679688 C 79.066406 61.863281 78.835938 61.957031 78.574219 61.957031 Z M 74.1875 53.347656 C 74.148438 53.339844 73.882812 53.324219 73.386719 53.292969 L 73.386719 56.925781 C 73.5 56.929688 73.601562 56.933594 73.6875 56.933594 C 74.804688 56.933594 75.632812 56.792969 76.171875 56.515625 C 76.410156 56.390625 76.625 56.234375 76.8125 56.042969 C 77.003906 55.847656 77.101562 55.699219 77.101562 55.597656 C 77.101562 55.085938 76.777344 54.59375 76.128906 54.121094 C 75.511719 53.671875 74.867188 53.414062 74.1875 53.347656 Z M 74.1875 53.347656 " fill-opacity="1" fill-rule="nonzero"/><path fill="#db9c2e" d="M 9.386719 41.121094 L 6.703125 40.03125 C 6.085938 39.78125 5.417969 40.230469 5.417969 40.894531 L 5.417969 70.222656 C 5.417969 70.886719 6.089844 71.339844 6.703125 71.089844 L 9.386719 70 Z M 9.386719 41.121094 " fill-opacity="1" fill-rule="nonzero"/><path fill="#ccc033" d="M 22.707031 63.90625 L 22.226562 63.90625 L 22.226562 40.773438 C 16.199219 41.6875 12.886719 42.542969 12.886719 42.542969 L 12.886719 68.574219 L 13.367188 68.574219 C 17.648438 69.585938 50.535156 76.710938 96.113281 68.574219 L 96.777344 68.574219 L 96.777344 65.296875 C 55.742188 71.144531 26.710938 64.851562 22.707031 63.90625 Z M 22.707031 63.90625 " fill-opacity="1" fill-rule="nonzero"/><path fill="#fff4c1" d="M 55.441406 68.242188 C 58.546875 68.242188 61.546875 68.070312 64.375 67.746094 C 54.589844 67.828125 46.199219 67.285156 39.535156 66.578125 C 44.183594 67.636719 49.625 68.242188 55.441406 68.242188 Z M 55.441406 68.242188 " fill-opacity="1" fill-rule="nonzero"/><path fill="#db9c2e" d="M 103.96875 68.054688 L 96.777344 65.539062 L 96.777344 68.574219 L 103.96875 71.089844 C 104.683594 71.339844 105.464844 70.886719 105.464844 70.222656 L 105.464844 67.1875 C 105.464844 67.851562 104.683594 68.304688 103.96875 68.054688 Z M 103.96875 68.054688 " fill-opacity="1" fill-rule="nonzero"/><path fill="#ffc34c" d="M 101.121094 63.171875 C 100.949219 63.171875 100.78125 63.140625 100.621094 63.074219 C 100.464844 63.007812 100.324219 62.914062 100.199219 62.792969 C 100.078125 62.671875 99.984375 62.53125 99.917969 62.371094 C 99.851562 62.210938 99.820312 62.046875 99.820312 61.875 L 99.820312 44.761719 C 99.820312 44.589844 99.851562 44.425781 99.917969 44.265625 C 99.984375 44.105469 100.078125 43.964844 100.199219 43.84375 C 100.324219 43.722656 100.464844 43.628906 100.621094 43.5625 C 100.78125 43.496094 100.949219 43.460938 101.121094 43.460938 C 101.292969 43.460938 101.457031 43.496094 101.617188 43.5625 C 101.777344 43.628906 101.917969 43.722656 102.039062 43.84375 C 102.160156 43.964844 102.253906 44.105469 102.320312 44.265625 C 102.386719 44.425781 102.417969 44.589844 102.417969 44.761719 L 102.417969 61.875 C 102.417969 62.046875 102.386719 62.210938 102.320312 62.371094 C 102.253906 62.53125 102.160156 62.671875 102.039062 62.792969 C 101.917969 62.914062 101.777344 63.007812 101.617188 63.074219 C 101.457031 63.140625 101.292969 63.171875 101.121094 63.171875 Z M 101.121094 63.171875 " fill-opacity="1" fill-rule="nonzero"/><path fill="#ccc033" d="M 24.46875 45.394531 C 24.46875 45.835938 24.550781 46.257812 24.71875 46.664062 C 24.890625 47.070312 25.128906 47.429688 25.441406 47.742188 C 25.75 48.054688 26.109375 48.292969 26.515625 48.460938 C 26.925781 48.628906 27.347656 48.714844 27.789062 48.714844 C 28.230469 48.714844 28.652344 48.628906 29.058594 48.460938 C 29.464844 48.292969 29.824219 48.054688 30.136719 47.742188 C 30.449219 47.429688 30.6875 47.070312 30.855469 46.664062 C 31.023438 46.257812 31.109375 45.835938 31.109375 45.394531 C 31.109375 44.953125 31.023438 44.53125 30.855469 44.121094 C 30.6875 43.714844 30.449219 43.355469 30.136719 43.046875 C 29.824219 42.734375 29.464844 42.496094 29.058594 42.324219 C 28.652344 42.15625 28.230469 42.074219 27.789062 42.074219 C 27.347656 42.074219 26.925781 42.15625 26.515625 42.324219 C 26.109375 42.496094 25.75 42.734375 25.441406 43.046875 C 25.128906 43.355469 24.890625 43.714844 24.71875 44.121094 C 24.550781 44.53125 24.46875 44.953125 24.46875 45.394531 Z M 24.46875 45.394531 " fill-opacity="1" fill-rule="nonzero"/></svg>